# xmcd
#
# Track frame offsets:
#	183
#	14883
#	30733
#	42295
#	53655
#	67370
#	79658
#	95595
#	112045
#	125883
#	142045
#	157245
#
# Disc length: 2295 seconds
#
# Revision: 8
# Processed by: cddbd v1.5.2PL0 Copyright (c) Steve Scherf et al.
# Submitted via: audiograbber 1.83.01
#
DISCID=b908f50c
DTITLE=Rudi Schuricke  - Seine Grossen Erfolge
DYEAR=1956
DGENRE=Oldies
TTITLE0=Capri Fischer
TTITLE1=Dreh dich noch einmal um
TTITLE2=Glaube mir (answer me)
TTITLE3=Frauen und Wein
TTITLE4=Frühling in Sorrent
TTITLE5=Auf Wiedersehen
TTITLE6=Florentinische Nächte
TTITLE7=Laß uns träumen vom Lago Maggiore
TTITLE8=Das Märchen unserer Liebe (San Marco-Glocken)
TTITLE9=Wenn du in meinen Träumen bei mir bist
TTITLE10=Moulin Rouge (ein Lied aus Paris)
TTITLE11=Sei lieb zu mir
EXTD=YEAR: 1956
EXTT0=
EXTT1=
EXTT2=
EXTT3=
EXTT4=
EXTT5=
EXTT6=
EXTT7=
EXTT8=
EXTT9=
EXTT10=
EXTT11=
PLAYORDER=
